<?xml version="1.0" encoding="UTF-8" standalone="no"?>
<!-- Created with Inkscape (http://www.inkscape.org/) -->

<svg
   version="1.1"
   id="svg2"
   width="336.936"
   height="387.41733"
   viewBox="0 0 336.936 387.41733"
   sodipodi:docname="Personal Logo.ai"
   xmlns:inkscape="http://www.inkscape.org/namespaces/inkscape"
   xmlns:sodipodi="http://sodipodi.sourceforge.net/DTD/sodipodi-0.dtd"
   xmlns="http://www.w3.org/2000/svg"
   xmlns:svg="http://www.w3.org/2000/svg">
  <defs
     id="defs6">
    <clipPath
       clipPathUnits="userSpaceOnUse"
       id="clipPath18">
      <path
         d="M 0,290.563 H 252.702 V 0 H 0 Z"
         id="path16" />
    </clipPath>
  </defs>
  <sodipodi:namedview
     id="namedview4"
     pagecolor="#ffffff"
     bordercolor="#000000"
     borderopacity="0.25"
     inkscape:showpageshadow="2"
     inkscape:pageopacity="0.0"
     inkscape:pagecheckerboard="0"
     inkscape:deskcolor="#d1d1d1"
     showgrid="false" />
  <g
     id="g10"
     inkscape:groupmode="layer"
     inkscape:label="Page 1"
     transform="matrix(1.3333333,0,0,-1.3333333,0,387.41733)">
    <g
       id="g12">
      <g
         id="g14"
         clip-path="url(#clipPath18)">
        <g
           id="g20"
           transform="translate(211.0582,21.7162)">
          <path
             d="m 0,0 -25.498,14.724 -17.875,10.321 -6.283,-3.628 -34.74,-20.057 -92.44,53.37 8.036,4.626 84.404,-48.729 42.763,24.687 14.978,8.65 L 0.008,59.356 8.045,54.73 -18.632,39.33 -35.351,29.677 -17.473,19.356 8.038,4.626 Z M 35.552,8.046 4.986,25.694 c -2.551,1.473 -2.552,5.156 -10e-4,6.63 l 29.22,16.884 c 2.551,1.476 2.55,5.159 -0.003,6.631 L 0.398,75.341 c -1.184,0.682 -2.643,0.682 -3.827,-10e-4 L -82.482,29.698 c -1.184,-0.684 -2.643,-0.684 -3.828,0 l -79.052,45.64 c -1.184,0.683 -2.644,0.683 -3.828,0 l -33.807,-19.517 c -2.551,-1.473 -2.551,-5.158 0,-6.631 L -86.31,-18.176 c 1.185,-0.684 2.644,-0.684 3.828,0 L -44.13,3.966 c 1.184,0.683 2.643,0.683 3.828,0 L -2.08,-18.103 c 1.184,-0.682 2.644,-0.682 3.829,0.001 L 35.552,1.416 c 2.552,1.473 2.552,5.157 0,6.63"
             style="fill:#50c9f0;fill-opacity:1;fill-rule:nonzero;stroke:none"
             id="path22" />
        </g>
        <g
           id="g24"
           transform="translate(232.919,178.6415)">
          <path
             d="m 0,0 v -19.287 -47.774 l -7.875,4.561 v 38.666 18.452 l -15.501,-8.945 -82.882,-47.831 -82.88,47.831 -15.502,8.945 V -23.834 -62.5 l -7.876,-4.561 V -19.287 0 8.259 l 3.577,-2.064 19.801,-11.427 82.88,-47.833 82.882,47.833 19.8,11.427 L 0,8.259 Z M 12.867,36.145 -23.376,15.219 v -0.127 l -81.142,-46.848 c -1.076,-0.622 -2.403,-0.622 -3.479,0 l -81.141,46.848 v 0.129 l -36.244,20.925 c -2.319,1.34 -5.218,-0.334 -5.218,-3.012 V -88.567 c 0,-2.678 2.899,-4.352 5.218,-3.013 l 34.504,19.919 c 1.077,0.621 1.74,1.77 1.74,3.013 v 29.84 c 0,2.678 2.899,4.351 5.218,3.012 l 75.923,-43.834 c 1.076,-0.621 2.403,-0.621 3.478,0 l 75.925,43.834 c 2.32,1.339 5.218,-0.334 5.218,-3.012 v -29.861 c 0,-1.242 0.663,-2.391 1.74,-3.012 l 34.503,-19.922 c 2.32,-1.338 5.219,0.335 5.219,3.014 V 33.133 c 0,2.678 -2.899,4.351 -5.219,3.012"
             style="fill:#50c9f0;fill-opacity:1;fill-rule:nonzero;stroke:none"
             id="path26" />
        </g>
        <g
           id="g28"
           transform="translate(126.6632,271.6224)">
          <path
             d="M 0,0 86.183,-49.758 78.147,-54.383 0,-9.265 l -78.149,-45.118 -8.037,4.625 z m -109.846,-52.367 33.475,-19.326 c 1.235,-0.714 2.758,-0.714 3.993,0 l 70.381,40.632 c 1.235,0.714 2.758,0.714 3.993,0 l 70.378,-40.632 c 1.236,-0.714 2.757,-0.714 3.994,0 l 33.475,19.326 c 2.662,1.537 2.662,5.38 0,6.916 L 1.996,16.814 c -1.235,0.714 -2.758,0.714 -3.993,0 l -107.849,-62.265 c -2.662,-1.536 -2.662,-5.379 0,-6.916"
             style="fill:#50c9f0;fill-opacity:1;fill-rule:nonzero;stroke:none"
             id="path30" />
        </g>
      </g>
    </g>
  </g>
</svg>
